<?xml version="1.0" ?><!DOCTYPE svg  PUBLIC '-//W3C//DTD SVG 1.1//EN'  'http://www.w3.org/Graphics/SVG/1.1/DTD/svg11.dtd'><svg width="512px" height="512px" viewBox="0 0 512 512" style="enable-background:new 0 0 512 512;" version="1.1" xml:space="preserve" xmlns="http://www.w3.org/2000/svg" xmlns:xlink="http://www.w3.org/1999/xlink"><g id="_x35_07_x2C__internet__x2C__school__x2C__web__x2C___education"><g><path d="M21,141c81.6-44.17,147.51-73.99,233.82-120L491,141h-50H71H21z" style="fill:#F0F1F1;"/><path d="M257.82,32.333L471.694,141H491L254.82,21C168.51,67.01,102.6,96.83,21,141h24.178    C117.342,102.8,179.098,74.298,257.82,32.333z" style="fill:#DEE0E0;"/><polygon points="491,421 491,441 379.01,491 131.16,491 21,441 21,421 171,421 191,451 321,451 341,421       " style="fill:#73665C;"/><g><g><g><polygon points="32.667,430.667 177.445,430.667 171,421 21,421 21,441 32.667,446.295      " style="fill:#60534A;"/></g></g></g><polygon points="341,421 321,451 191,451 171,421   " style="fill:#F7D794;"/><polygon points="187.333,430 335,430 341,421 171,421 191,451 201.333,451   " style="fill:#E2BF7F;"/><path d="M401,236v135h-50V236c0-13.81,11.19-25,25-25c6.9,0,13.16,2.8,17.68,7.32    C398.2,222.84,401,229.1,401,236z" style="fill:#FEBE76;"/><path d="M361.666,243.333c0-13.81,11.19-25,25-25c2.924,0,5.729,0.507,8.34,1.43    c-0.425-0.497-0.864-0.981-1.326-1.443C389.16,213.8,382.9,211,376,211c-13.81,0-25,11.19-25,25v135h10.666V243.333z" style="fill:#E8A664;"/><path d="M161,236v135h-50V236c0-13.81,11.19-25,25-25c6.9,0,13.16,2.8,17.68,7.32S161,229.1,161,236z" style="fill:#FEBE76;"/><path d="M119.667,244.667c0-13.81,11.19-25,25-25c4.678,0,9.06,1.29,12.806,3.527    c-1.063-1.78-2.337-3.418-3.792-4.874C149.16,213.8,142.9,211,136,211c-13.81,0-25,11.19-25,25v135h8.667V244.667z" style="fill:#E8A664;"/><path d="M281,236v135h-50V236c0-13.81,11.19-25,25-25c6.9,0,13.16,2.8,17.68,7.32    C278.2,222.84,281,229.1,281,236z" style="fill:#FEBE76;"/><path d="M240,243.333c0-13.81,11.19-25,25-25c3.885,0,7.566,0.887,10.849,2.469    c-0.67-0.874-1.392-1.706-2.169-2.482C269.16,213.8,262.9,211,256,211c-13.81,0-25,11.19-25,25v135h9V243.333z" style="fill:#E8A664;"/><path d="M256,61c13.81,0,25,11.19,25,25s-11.19,25-25,25c-13.81,0-25-11.19-25-25S242.19,61,256,61z" style="fill:#FF7979;"/><path d="M236,99c0-13.81,11.19-25,25-25c8.124,0,15.338,3.875,19.903,9.875    C279.824,71.061,269.093,61,256,61c-13.81,0-25,11.19-25,25c0,5.686,1.9,10.926,5.096,15.125C236.037,100.424,236,99.717,236,99z" style="fill:#D65B5B;"/><polygon points="441,141 441,181 70.45,181 71,141   " style="fill:#73665C;"/><polygon points="80.667,151 441,151 441,141 71,141 70.45,181 80.254,181   " style="fill:#60534A;"/><path d="M441,186H70.45c-1.338,0-2.62-0.536-3.56-1.489c-0.94-0.953-1.458-2.242-1.44-3.58l0.55-40    c0.038-2.761,2.358-4.966,5.068-4.931c2.761,0.038,4.969,2.307,4.931,5.068L75.52,176H436v-35c0-2.761,2.238-5,5-5s5,2.239,5,5v40    C446,183.761,443.762,186,441,186z"/><path d="M161,376c-2.761,0-5-2.238-5-5V236c0-5.345-2.08-10.369-5.855-14.145S141.345,216,136,216c-11.028,0-20,8.972-20,20v135    c0,2.762-2.239,5-5,5s-5-2.238-5-5V236c0-16.542,13.458-30,30-30c8.017,0,15.551,3.12,21.216,8.784S166,227.983,166,236v135    C166,373.762,163.761,376,161,376z"/><path d="M491,146H21c-2.289,0-4.285-1.554-4.847-3.772c-0.562-2.218,0.455-4.535,2.467-5.625    c42.55-23.032,80.129-41.813,119.914-61.697c35.698-17.841,72.612-36.29,113.934-58.318c1.44-0.768,3.163-0.784,4.617-0.045    l236.18,120c2.063,1.047,3.137,3.373,2.598,5.622C495.324,144.414,493.313,146,491,146z M40.902,136h429.219L254.874,26.636    c-40.511,21.551-76.775,39.675-111.87,57.215C108.847,100.922,76.319,117.179,40.902,136z"/><path d="M281,376c-2.762,0-5-2.238-5-5V236c0-5.346-2.079-10.369-5.855-14.145S261.346,216,256,216c-11.028,0-20,8.972-20,20v135    c0,2.762-2.239,5-5,5s-5-2.238-5-5V236c0-16.542,13.458-30,30-30c8.017,0,15.551,3.12,21.216,8.785    C282.88,220.449,286,227.983,286,236v135C286,373.762,283.762,376,281,376z"/><path d="M401,376c-2.762,0-5-2.238-5-5V236c0-5.346-2.079-10.369-5.855-14.145S381.346,216,376,216c-11.028,0-20,8.972-20,20v135    c0,2.762-2.238,5-5,5s-5-2.238-5-5V236c0-16.542,13.458-30,30-30c8.017,0,15.551,3.12,21.216,8.785    C402.88,220.449,406,227.983,406,236v135C406,373.762,403.762,376,401,376z"/><path d="M256,116c-16.542,0-30-13.458-30-30s13.458-30,30-30s30,13.458,30,30S272.542,116,256,116z M256,66    c-11.028,0-20,8.972-20,20s8.972,20,20,20c11.028,0,20-8.972,20-20S267.028,66,256,66z"/><path d="M146,117.33H76c-2.761,0-5-2.239-5-5s2.239-5,5-5h70c2.761,0,5,2.239,5,5S148.761,117.33,146,117.33z"/><path d="M379.01,496H131.16c-0.713,0-1.417-0.152-2.066-0.447l-110.16-50C17.147,444.742,16,442.962,16,441v-20    c0-2.762,2.239-5,5-5h150c2.761,0,5,2.238,5,5s-2.239,5-5,5H26v11.778L132.242,486h245.703L486,437.757V426H341    c-2.762,0-5-2.238-5-5s2.238-5,5-5h150c2.762,0,5,2.238,5,5v20c0,1.973-1.16,3.762-2.962,4.565l-111.99,50    C380.407,495.852,379.712,496,379.01,496z"/><path d="M321,456H191c-1.672,0-3.233-0.836-4.16-2.227l-20-30c-1.023-1.534-1.118-3.507-0.248-5.133S169.156,416,171,416h170    c1.844,0,3.538,1.015,4.408,2.641s0.774,3.599-0.248,5.133l-20,30C324.233,455.164,322.672,456,321,456z M193.676,446h124.648    l13.333-20H180.343L193.676,446z"/><path d="M451,376H61c-2.761,0-5-2.238-5-5s2.239-5,5-5h390c2.762,0,5,2.238,5,5S453.762,376,451,376z"/></g></g><g id="Layer_1"/></svg>